# xmcd
#
# Track frame offsets: 
#        150
#        11856
#        21798
#        31290
#        42422
#        53476
#        64437
#        74349
#        83366
#        93213
#        103064
#        115084
#        124987
#        136698
#        148056
#        156967
#        168395
#        178307
#        188801
#        201652
#
# Disc length: 2845 seconds
#
# Revision: 1
# Processed by: cddbd v1.5.2PL0 Copyright (c) Steve Scherf et al.
# Submitted via: ExactAudioCopyFreeDBPlugin 1.0
#
DISCID=1e0b1b14
DTITLE=George Jones - The Absolutely Essential 3 CD Collection [CD 3)
DYEAR=2013
DGENRE=Country
TTITLE0=She Thinks I Still Care
TTITLE1=It's Been So Long
TTITLE2=Why Don't You Love Me (Like You Used To)
TTITLE3=My Soul's Been Satisfied
TTITLE4=Tall Tall Trees
TTITLE5=You Gotta Be My Baby
TTITLE6=All I Want To Do
TTITLE7=Jesus Wants Me
TTITLE8=Jambalya (On The Bayou)
TTITLE9=Rain Rain
TTITLE10=Oh Lonesome Me
TTITLE11=Frozen Heart
TTITLE12=The Window Up Above
TTITLE13=We'll Understand It
TTITLE14=Poor Man's Riches
TTITLE15=One Is A Lonely Number
TTITLE16=I've Got Five Dollars And It's Saturday Night
TTITLE17=Half As Much
TTITLE18=I Love You Because
TTITLE19=You're Still On My mind
EXTD=
EXTT0=
EXTT1=
EXTT2=
EXTT3=
EXTT4=
EXTT5=
EXTT6=
EXTT7=
EXTT8=
EXTT9=
EXTT10=
EXTT11=
EXTT12=
EXTT13=
EXTT14=
EXTT15=
EXTT16=
EXTT17=
EXTT18=
EXTT19=
PLAYORDER=
